# Blender 4.5.4 LTS
# www.blender.org
o Sphere
v 0.436270 0.652601 -0.696353
v 0.886717 0.345458 -0.579221
v -0.000455 0.656005 0.000903
v -0.066139 -0.138574 0.724622
v -0.539737 0.567664 0.862765
v -0.160575 -0.467667 0.331688
v -0.912335 0.567060 0.638025
v -0.134841 -0.818837 0.059132
v -0.437432 0.901107 -0.069409
v -1.159765 0.589521 -0.536380
v -0.659393 -1.075112 -0.543398
v -0.052568 0.717023 -0.122367
v 0.021129 0.610431 -0.538562
v 0.085848 0.227431 -1.343036
v 0.250365 -0.728333 -1.088342
v -0.014661 0.701727 -0.320811
v 0.281388 0.635279 -0.898641
v -0.105674 0.339694 -1.174821
v 0.289450 0.486553 -1.173836
v 0.497306 -0.029737 -1.398000
v 0.134651 0.655866 -0.639756
v 0.591298 -0.647186 -1.082697
v 0.115808 -0.990148 -0.380191
v 0.490658 0.310662 -1.292425
v 0.559773 -0.320928 -1.345168
v 0.839915 -0.526083 -0.935672
v 0.047654 0.690102 -0.075544
v 0.834244 -0.380380 -1.103295
v 0.895219 0.181582 -1.020266
v 0.188858 0.696266 -0.294194
v 0.641545 -0.737170 -0.816643
v 0.247780 0.618293 -0.404814
v 0.434639 -0.814898 -0.521204
v 0.179340 -0.853786 -0.249976
v 0.993789 -0.339722 -0.705283
v 0.516921 0.610321 -0.527075
v 0.257099 -0.781475 -0.383484
v 1.016715 0.052875 -0.763916
v 0.831340 -0.600763 -0.690841
v 0.315709 0.848466 -0.224303
v 1.041187 0.630060 -0.389719
v 0.910173 -0.411990 -0.430248
v 0.199176 -0.782006 -0.098951
v 1.015811 -0.192371 -0.565288
v 1.006397 0.032131 -0.502363
v 0.516842 0.740676 -0.450085
v 0.720009 -0.686117 -0.508426
v 0.504225 -0.684158 -0.269329
v 0.754227 0.490880 -0.588963
v 0.270832 -0.635882 -0.032279
v 1.138903 0.344577 -0.436249
v 0.879968 -0.346624 -0.293452
v 0.423615 -0.458893 -0.041373
v 0.541433 0.952899 -0.177399
v 1.123270 -0.225555 -0.231101
v 0.603299 -0.473357 -0.115426
v 0.855547 0.807983 -0.352723
v 1.208833 0.599732 -0.248890
v 1.331695 0.238293 -0.185367
v 1.376971 0.089696 0.007003
v 1.239016 0.724738 0.122441
v 0.075022 -0.665685 0.013266
v 0.264551 -0.414555 0.002566
v 1.387315 0.438678 0.091607
v 0.191573 -0.680097 -0.016228
v 0.985933 -0.414793 -0.055267
v 0.766469 0.984592 -0.060723
v 0.665614 -0.511147 0.003845
v 1.065928 0.859738 -0.057158
v 0.874650 -0.492946 0.206940
v 0.577961 -0.520322 0.163666
v 1.375602 0.100107 0.323501
v 0.189136 -0.486333 0.053095
v 1.207096 0.068579 0.648672
v 1.135605 -0.211506 0.538884
v 0.953926 -0.360295 0.515021
v 0.726807 -0.612682 0.549483
v 0.154607 -0.613260 0.168679
v 1.304776 0.324827 0.525805
v 0.121447 -0.471929 0.068725
v 0.780200 1.010145 0.238581
v 0.955933 0.218680 0.855348
v 0.916626 0.821228 0.600301
v 1.136980 0.481381 0.698633
v 0.855308 -0.144223 0.789768
v 0.746493 0.153551 0.919004
v 0.643901 0.817809 0.688855
v 0.388680 -0.803291 0.471670
v 0.846633 0.535888 0.839462
v 0.043912 0.739053 0.109802
v 0.401844 -0.122259 0.787009
v 0.238053 -0.746787 0.339233
v 0.422807 -0.742588 0.724822
v 0.502743 0.627068 0.816554
v 0.581036 0.371088 0.920005
v 0.529739 0.007580 0.882964
v 0.135858 0.761656 0.452447
v 0.190058 -0.738433 0.618842
v -0.013522 -0.540907 0.564149
v 0.040025 -0.627988 0.369147
v 0.244120 -0.616519 0.816722
v 0.133092 -0.408283 0.813355
v 0.268782 0.315934 0.838699
v 0.017426 0.213274 0.606522
v 0.246235 0.098369 0.804446
v 0.033271 -0.012395 0.575659
v -0.071572 -0.415262 0.324011
v -0.033373 0.106532 0.757723
v -0.032545 -0.197774 0.553654
v -0.100863 0.420690 0.229002
v -0.057702 0.423577 0.407913
v -0.257050 0.302460 0.959417
v -0.111975 0.301385 0.810195
v -0.015969 0.638351 0.069309
v -0.197708 -0.043860 0.943614
v -0.679024 0.379963 1.034938
v -0.281443 -0.431431 0.494288
v -0.094629 -0.588123 0.127785
v -0.552688 0.148041 1.115147
v -0.424305 -0.271557 0.951227
v -0.473757 0.417686 0.996083
v -0.223905 0.534711 0.279245
v -0.529264 0.671064 0.571735
v -0.662773 0.643157 0.693612
v -0.042328 -0.738357 0.063085
v -0.852744 0.072819 1.058376
v -0.531310 -0.441300 0.757303
v -0.361493 0.735274 0.188552
v -1.089283 0.133501 0.849167
v -1.128000 -0.064439 0.697921
v -1.025628 -0.285635 0.556558
v -0.713400 -0.471520 0.535220
v -0.234125 -0.562596 0.162601
v -0.109167 -0.732355 0.091390
v -0.903116 -0.317797 0.806920
v -0.345284 -0.446834 0.350042
v -0.828395 0.526183 0.849472
v -0.931601 0.258364 0.993071
v -0.240520 0.773434 0.052855
v -0.500866 -0.533329 0.237212
v -0.368585 -0.562175 0.156807
v -0.310592 -0.695207 0.131823
v -0.464714 0.627789 0.317250
v -0.727390 0.623839 0.322811
v -0.513995 -0.504134 0.118426
v -1.079127 0.279155 0.294493
v -1.126580 -0.075791 0.427219
v -0.952306 -0.326055 0.374617
v -0.716121 -0.569030 -0.023308
v -0.589450 -0.737968 0.038470
v -0.515295 -0.891751 0.001027
v -0.544195 0.790036 0.168925
v -1.067079 0.563161 0.149999
v -0.864859 0.856530 -0.132067
v -0.458440 -1.069880 -0.165059
v -1.042205 -0.375778 0.044369
v -1.083978 -0.430176 -0.189838
v -0.991657 0.739668 0.015834
v -1.303033 0.043289 -0.059277
v -1.219409 -0.196529 -0.026142
v -1.269935 0.297666 -0.579998
v -1.333495 0.035209 -0.352794
v -1.322789 0.336277 -0.222065
v -1.230218 -0.253072 -0.343125
v -1.052359 -0.451591 -0.416416
v -0.879185 -0.571130 -0.251322
v -1.209120 0.575008 -0.170199
v -0.165347 0.803356 -0.119273
v -0.619357 0.937034 -0.305652
v -1.092527 0.375518 -0.814626
v -0.970536 0.823792 -0.318972
v -0.793205 -0.884853 -0.277839
v -0.905070 -0.726974 -0.483879
v -0.173022 -0.965934 -0.041479
v -0.084872 0.764371 -0.074857
v -0.944271 -0.275821 -0.826180
v -0.838631 -0.412895 -0.764406
v -0.854529 -0.722456 -0.734380
v -1.043313 0.036330 -0.897826
v -0.998439 0.740071 -0.556610
v -0.731111 -0.572223 -0.938769
v -0.099914 -1.050702 -0.185880
v -0.678703 -0.876723 -0.885136
v -0.361738 0.915093 -0.270655
v -0.417205 0.857212 -0.627980
v -0.402686 -0.208657 -0.987127
v -0.223100 -1.171543 -0.544674
v -0.624924 -0.291025 -0.945025
v -0.552180 -0.695959 -1.045308
v -0.523632 -1.055716 -0.815362
v -0.257625 -1.137220 -0.278190
v -0.673025 0.103154 -1.076011
v -0.193720 0.005697 -1.272683
v -0.095374 -0.850061 -0.987604
v -0.203194 -1.077728 -0.825856
v -0.408696 -0.913263 -0.997239
v -0.389267 0.461092 -0.997562
v -0.342671 0.132432 -1.050315
v -0.390984 -0.083144 -1.031088
v -0.021750 -1.085947 -0.642096
v -0.135450 0.783448 -0.490714
v -0.243629 0.367900 -0.982146
v 0.033417 0.565556 -0.977676
v -0.010377 -1.085605 -0.387222
v 0.035932 -0.967269 -0.180508
v -0.004781 -0.823598 0.000213
v 0.148712 0.821993 -0.029141
v 0.086646 -0.715672 -0.016306
v 0.018730 -0.613804 0.075687
v 0.062765 -0.616113 0.043596
v -0.067373 0.669846 0.088507
v -0.020048 -0.678705 0.073827
v -0.003590 0.682756 -0.010249
v -0.143722 0.782487 0.004716
v -0.271235 -0.733258 -1.077826
v 0.094154 -0.527331 -1.265531
v -0.061620 -0.657678 -1.041755
v 0.146542 -0.830172 -0.804425
v 0.142571 0.007381 -1.419245
v 0.021602 0.640212 -0.080955
v 0.290464 -0.293273 -1.409241
v 0.092877 0.547025 -0.302765
v 0.390479 -0.590650 -1.233164
v 0.352812 -0.827149 -0.832063
v 0.240135 -0.836149 -0.560695
v 0.720443 0.148933 -1.247670
v 0.086063 -0.876699 -0.129265
v 0.851482 -0.155216 -1.166049
v 0.286990 -0.791638 -0.227419
v 0.650819 0.517062 -0.952775
v 0.359631 -0.657445 -0.181318
v 0.919207 0.307330 -0.755450
v 0.965770 -0.123169 -0.982656
v 0.102391 0.754478 -0.079321
v 0.098643 -0.774078 -0.061165
v 1.227995 0.012893 -0.294048
v 0.322762 0.948895 0.025672
v 0.708424 -0.565071 -0.279285
v 0.502065 1.018230 0.150738
v 1.275062 -0.195299 0.091100
v 0.400684 -0.469244 0.052436
v 1.053273 -0.398733 0.235088
v 1.031218 0.904336 0.272062
v 1.262853 0.654320 0.358397
v 0.124304 0.822836 0.083330
v 0.458691 -0.675748 0.201330
v 0.770433 -0.451578 0.449387
v 0.685421 -0.517443 0.257289
v 0.714395 -0.495454 0.728789
v 0.588623 0.962586 0.452708
v 0.752557 -0.348599 0.625968
v 0.306401 0.940083 0.285939
v 0.134373 0.840894 0.166052
v 0.643871 -0.238683 0.757183
v 0.300252 0.842472 0.529635
v 0.563943 -0.646035 0.787378
v 0.583885 -0.757427 0.519516
v 0.351667 0.714287 0.710640
v 0.427000 -0.456934 0.905951
v 0.368639 -0.249411 0.871379
v 0.006536 0.634767 0.389663
v 0.172722 0.547202 0.698267
v 0.068753 -0.479489 0.080305
v 0.011398 0.689477 0.126334
v 0.012735 -0.484802 0.097305
v 0.162672 -0.048932 0.701549
v 0.005485 -0.303289 0.677701
v -0.090788 -0.296298 0.476023
v -0.022502 0.353029 0.537991
v -0.005613 -0.520984 0.250221
v -0.017722 -0.535073 0.109389
v -0.195268 -0.325417 0.698711
v -0.092198 -0.294549 0.389179
v -0.388574 0.025232 1.071915
v -0.058645 0.622816 0.111497
v -0.248304 0.536739 0.722901
v -0.131837 -0.570410 0.292807
v -0.135731 -0.612487 0.206235
v -0.194041 -0.364081 0.303937
v -0.156269 0.628137 0.151776
v -0.712120 -0.191502 1.031538
v -0.338564 0.626034 0.456156
v -0.458479 -0.465254 0.329143
v -0.375352 -0.554713 0.247693
v -0.263065 -0.530345 0.232454
v -1.048706 0.377956 0.768367
v -0.113990 0.699861 0.092030
v -0.954553 -0.092659 0.960493
v -1.174241 0.143827 0.531598
v -0.117562 0.743087 0.051745
v -0.949258 -0.267832 0.262435
v -0.566555 -0.435083 0.222600
v -0.874900 0.540330 0.315594
v -1.051852 0.447995 0.487830
v -1.211163 0.285953 0.141248
v -1.081474 -0.057463 0.269922
v -0.848238 -0.498211 0.055333
v -0.734450 0.849282 0.033307
v -0.229770 -0.904886 0.021092
v -0.798726 -0.724443 -0.150944
v -1.232888 -0.018250 -0.668737
v -1.074997 -0.343812 -0.623995
v -0.908638 -0.495071 -0.576957
v -0.770979 -0.958550 -0.628319
v -0.729729 0.871382 -0.564237
v -0.647828 -1.060801 -0.338832
v -0.882828 0.666837 -0.792931
v -0.421867 -1.174093 -0.579374
v -0.731143 0.453720 -1.000551
v -0.904663 0.177883 -0.995270
v -0.765374 -0.153202 -0.987307
v -0.263486 0.694837 -0.780035
v -0.527741 0.672921 -0.880011
v -0.380193 -0.547751 -1.098739
v -0.258288 -0.241523 -1.192250
v -0.009430 -0.350666 -1.331746
v -0.186689 -0.530342 -1.087996
v -0.118266 0.540680 -0.811120
v -0.003553 0.649274 -0.106760
vn 0.2268 0.9732 -0.0377
vn 0.7596 0.4503 -0.4692
vn 0.0726 0.9660 0.2482
vn 0.7901 -0.3896 0.4732
vn 0.1100 0.8213 0.5597
vn -0.2463 -0.1367 0.9595
vn -0.5279 0.8395 0.1285
vn 0.2021 -0.5066 0.8381
vn 0.1479 0.9444 0.2936
vn -0.7828 0.5411 -0.3071
vn -0.5654 -0.8220 -0.0685
vn 0.7249 0.6866 -0.0563
vn 0.2412 0.9664 -0.0891
vn -0.2251 0.4318 -0.8734
vn -0.0378 -0.8437 -0.5354
vn 0.7205 0.6932 -0.0188
vn 0.0241 0.9515 -0.3069
vn -0.5078 0.5591 -0.6554
vn 0.0167 0.7578 -0.6523
vn 0.3031 0.0867 -0.9490
vn -0.1745 0.9845 0.0185
vn 0.4176 -0.7299 -0.5411
vn 0.7049 -0.6964 0.1347
vn 0.2752 0.5241 -0.8060
vn 0.4018 -0.3011 -0.8648
vn 0.7504 -0.5694 -0.3356
vn -0.7658 0.5443 -0.3424
vn 0.7264 -0.3897 -0.5661
vn 0.8025 0.3749 -0.4641
vn -0.5862 0.5832 -0.5624
vn 0.4662 -0.8654 -0.1838
vn -0.3236 0.9055 -0.2746
vn 0.2370 -0.9513 0.1970
vn 0.6287 -0.7351 0.2539
vn 0.9389 -0.3392 -0.0586
vn 0.1091 0.8785 -0.4652
vn 0.5240 -0.8300 0.1910
vn 0.9774 0.1727 -0.1220
vn 0.7643 -0.6444 0.0258
vn -0.4170 0.7652 -0.4905
vn 0.5079 0.4918 -0.7072
vn 0.8433 -0.4634 0.2720
vn 0.3713 -0.7413 0.5591
vn 0.9771 -0.1263 0.1712
vn 0.9266 -0.0740 -0.3687
vn -0.1446 0.6437 -0.7515
vn 0.5906 -0.7776 0.2158
vn 0.3006 -0.7991 0.5206
vn 0.4990 0.7061 -0.5025
vn 0.6506 -0.3170 0.6901
vn 0.6512 0.1182 -0.7496
vn 0.7149 -0.6986 -0.0313
vn -0.0434 -0.9337 0.3555
vn -0.1070 0.8986 -0.4256
vn 0.6380 -0.5949 -0.4890
vn 0.2539 -0.9394 0.2302
vn 0.2846 0.7181 -0.6352
vn 0.7553 0.4504 -0.4761
vn 0.9018 0.0141 -0.4319
vn 0.9625 -0.2087 -0.1736
vn 0.7888 0.6118 -0.0589
vn 0.3889 -0.3775 0.8404
vn 0.3999 -0.9090 0.1172
vn 0.9689 0.2397 -0.0620
vn 0.3017 -0.4690 0.8301
vn 0.4521 -0.8545 -0.2557
vn 0.1991 0.9438 -0.2640
vn 0.0521 -0.9770 -0.2067
vn 0.5542 0.7885 -0.2666
vn 0.3102 -0.9485 0.0637
vn 0.2379 -0.8645 -0.4427
vn 0.9554 -0.1942 0.2225
vn 0.4139 -0.9009 0.1309
vn 0.7288 -0.2264 0.6462
vn 0.6695 -0.5687 0.4779
vn 0.4149 -0.7804 0.4678
vn 0.8518 -0.5200 0.0637
vn -0.3275 -0.7341 -0.5948
vn 0.8819 0.1163 0.4568
vn 0.0060 -0.9841 0.1777
vn 0.2103 0.9703 0.1195
vn 0.4476 -0.0362 0.8935
vn 0.3956 0.7249 0.5640
vn 0.6467 0.3132 0.6954
vn 0.3153 -0.4802 0.8185
vn 0.1510 -0.1194 0.9813
vn 0.0249 0.7255 0.6877
vn 0.0182 -0.9961 -0.0860
vn 0.2813 0.3756 0.8831
vn -0.7503 0.6548 -0.0910
vn -0.1221 0.0569 0.9909
vn -0.2863 -0.9039 -0.3178
vn 0.0611 -0.8465 0.5289
vn -0.1591 0.4563 0.8755
vn -0.0728 0.1584 0.9847
vn -0.1391 -0.2929 0.9460
vn -0.6525 0.6482 0.3925
vn -0.4750 -0.8294 0.2941
vn -0.8456 -0.4355 0.3089
vn -0.7057 -0.6949 -0.1381
vn -0.3690 -0.5067 0.7792
vn -0.5756 -0.0445 0.8166
vn -0.4713 0.0952 0.8768
vn 0.1484 0.2186 0.9645
vn -0.4980 -0.1746 0.8494
vn 0.0960 -0.1328 0.9865
vn -0.5884 -0.4164 0.6931
vn 0.8495 0.0218 0.5272
vn -0.0319 -0.2797 0.9596
vn -0.0654 0.9117 0.4055
vn -0.2549 0.9167 0.3076
vn 0.5445 0.3456 0.7642
vn 0.7512 0.3625 0.5516
vn -0.3035 0.8665 0.3964
vn 0.6367 -0.2314 0.7356
vn -0.1501 0.4809 0.8638
vn 0.3832 -0.9188 0.0947
vn 0.3755 -0.7082 0.5978
vn 0.0630 0.0826 0.9946
vn 0.2751 -0.6209 0.7340
vn 0.2446 0.5504 0.7983
vn 0.5830 0.7526 0.3060
vn 0.0753 0.9931 0.0902
vn -0.1474 0.9567 0.2509
vn 0.3976 -0.3586 0.8446
vn -0.3933 -0.0309 0.9189
vn 0.0603 -0.9139 0.4014
vn 0.2933 0.7226 0.6259
vn -0.8586 0.0578 0.5094
vn -0.9141 -0.3056 0.2666
vn -0.7415 -0.6693 0.0467
vn -0.2507 -0.9676 0.0308
vn -0.1271 -0.7812 0.6112
vn 0.2809 -0.2865 0.9160
vn -0.5075 -0.7380 0.4448
vn 0.2759 -0.8983 0.3419
vn -0.3880 0.7419 0.5469
vn -0.5455 0.2915 0.7858
vn 0.2800 0.8224 0.4952
vn -0.5331 -0.7901 0.3026
vn -0.1768 -0.7360 0.6535
vn -0.0607 -0.3591 0.9313
vn 0.1703 0.9339 0.3144
vn -0.2922 0.9041 0.3119
vn -0.4516 -0.6955 0.5589
vn -0.9289 0.2891 0.2315
vn -0.9321 -0.3154 -0.1781
vn -0.6094 -0.7526 -0.2494
vn -0.5007 -0.5794 0.6431
vn -0.4884 -0.3093 0.8159
vn -0.3439 -0.5604 0.7535
vn 0.0184 0.8092 0.5872
vn -0.6527 0.5206 0.5505
vn -0.3724 0.9112 0.1765
vn -0.2422 -0.8283 0.5053
vn -0.6201 -0.6612 0.4223
vn -0.6710 -0.7289 0.1361
vn -0.5545 0.7349 0.3905
vn -0.9464 -0.1305 0.2954
vn -0.8448 -0.4224 0.3283
vn -0.9092 0.1933 -0.3688
vn -0.9853 -0.1468 -0.0880
vn -0.9676 0.2426 0.0706
vn -0.8706 -0.4853 -0.0811
vn -0.6335 -0.7573 -0.1586
vn -0.7821 -0.5770 0.2355
vn -0.8284 0.5429 0.1377
vn 0.4389 0.8946 0.0838
vn -0.0921 0.9955 -0.0240
vn -0.6839 0.2892 -0.6698
vn -0.5393 0.8409 -0.0455
vn -0.7776 -0.5255 0.3453
vn -0.9656 -0.2588 0.0248
vn 0.1960 -0.7099 0.6765
vn 0.5910 0.8050 -0.0526
vn -0.5164 -0.5017 -0.6940
vn -0.6970 -0.3211 -0.6412
vn -0.8871 -0.2322 -0.3988
vn -0.6291 -0.1473 -0.7633
vn -0.5663 0.7483 -0.3454
vn -0.6733 0.0114 -0.7393
vn 0.3260 -0.8175 0.4748
vn -0.6067 -0.4793 -0.6341
vn 0.2771 0.9608 -0.0069
vn 0.1645 0.8946 -0.4156
vn -0.4277 -0.1147 -0.8966
vn 0.1688 -0.9834 -0.0660
vn -0.3295 -0.1283 -0.9354
vn -0.3937 -0.1673 -0.9039
vn -0.3309 -0.7935 -0.5108
vn 0.0686 -0.9412 0.3309
vn -0.1411 -0.0466 -0.9889
vn -0.6016 0.1324 -0.7877
vn 0.3801 -0.4923 -0.7831
vn 0.2029 -0.8101 -0.5501
vn -0.1306 -0.5564 -0.8206
vn 0.1812 0.3906 -0.9026
vn -0.3282 0.2154 -0.9197
vn -0.4513 -0.1412 -0.8811
vn 0.5094 -0.8194 -0.2629
vn 0.5390 0.8055 -0.2462
vn -0.1672 0.5468 -0.8204
vn -0.3166 0.8557 -0.4094
vn 0.4676 -0.8706 0.1531
vn 0.5540 -0.6922 0.4625
vn 0.4643 -0.5119 0.7228
vn -0.6221 0.7423 -0.2488
vn 0.3868 -0.4574 0.8007
vn 0.4654 -0.2544 0.8477
vn 0.4551 -0.3348 0.8251
vn 0.4983 0.5971 0.6286
vn 0.4370 -0.2908 0.8511
vn 0.8116 0.5360 0.2326
vn 0.2894 0.9074 0.3049
vn 0.0758 -0.2537 -0.9643
vn -0.2279 -0.5924 -0.7728
vn -0.0101 -0.5649 -0.8251
vn 0.2833 -0.8683 -0.4072
vn -0.1592 0.1147 -0.9806
vn -0.1351 0.8916 -0.4321
vn 0.0090 -0.2659 -0.9640
vn 0.0153 0.9762 -0.2165
vn 0.1596 -0.6408 -0.7509
vn 0.1468 -0.9661 -0.2126
vn 0.4363 -0.8997 0.0124
vn 0.5922 0.3055 -0.7457
vn 0.6459 -0.5551 0.5240
vn 0.7291 -0.0601 -0.6817
vn 0.7161 -0.6885 0.1151
vn 0.4946 0.7847 -0.3737
vn 0.5086 -0.6487 0.5662
vn 0.8378 0.5311 -0.1268
vn 0.9228 -0.0556 -0.3813
vn -0.6900 0.6461 -0.3262
vn 0.4675 -0.5632 0.6814
vn 0.7726 -0.3003 -0.5594
vn -0.4038 0.8986 -0.1715
vn 0.5850 -0.6199 0.5230
vn -0.1521 0.9884 0.0029
vn 0.8248 -0.5624 -0.0578
vn -0.0550 -0.8437 -0.5339
vn 0.5823 -0.8047 0.1153
vn 0.5190 0.8386 0.1654
vn 0.8068 0.5097 0.2987
vn -0.6877 0.7189 -0.1015
vn 0.2591 -0.7430 -0.6170
vn 0.6845 -0.7038 0.1900
vn 0.4247 -0.8901 -0.1656
vn 0.8002 -0.1820 0.5715
vn -0.0479 0.9191 0.3911
vn 0.6713 -0.4465 0.5916
vn -0.4174 0.8889 0.1888
vn -0.6544 0.7548 0.0455
vn 0.3214 -0.2277 0.9192
vn -0.4140 0.7681 0.4886
vn 0.4319 -0.5696 0.6993
vn 0.5053 -0.8627 -0.0183
vn -0.3777 0.5848 0.7179
vn 0.1167 -0.1041 0.9877
vn -0.0238 0.3348 0.9420
vn -0.8316 0.4693 0.2971
vn -0.6149 0.3663 0.6984
vn 0.0534 -0.9282 0.3682
vn -0.8628 0.5043 0.0366
vn 0.4913 -0.7596 0.4262
vn -0.5940 0.0676 0.8016
vn -0.7883 0.1039 0.6064
vn -0.2741 -0.8892 0.3662
vn 0.0001 0.6884 0.7254
vn -0.2343 -0.9717 0.0308
vn 0.6855 -0.4798 0.5477
vn 0.5635 -0.7170 0.4103
vn -0.3677 -0.8942 0.2553
vn 0.3439 -0.1339 0.9294
vn 0.4938 0.3922 0.7761
vn 0.5251 0.7660 0.3708
vn 0.0129 -0.6890 0.7246
vn -0.0016 -0.9961 0.0879
vn 0.1608 -0.6800 0.7154
vn 0.4015 0.5309 0.7463
vn -0.1582 -0.5080 0.8467
vn 0.3830 0.9231 -0.0342
vn -0.0750 -0.9567 0.2814
vn -0.0187 -0.8834 0.4682
vn -0.0919 -0.8087 0.5810
vn -0.7935 0.4847 0.3680
vn 0.3390 0.6092 0.7170
vn -0.6271 -0.3377 0.7019
vn -0.9945 0.1006 -0.0279
vn 0.4175 0.7221 0.5515
vn -0.6832 -0.7181 0.1327
vn -0.4238 -0.8773 0.2252
vn -0.5684 0.7724 0.2835
vn -0.7874 0.6069 -0.1085
vn -0.8464 0.1669 0.5057
vn -0.9411 -0.3017 0.1529
vn -0.3480 -0.8168 0.4601
vn -0.2181 0.8828 0.4161
vn 0.0316 -0.5492 0.8351
vn -0.7880 -0.2919 0.5420
vn -0.8514 -0.2094 -0.4809
vn -0.6871 -0.5852 -0.4306
vn -0.8401 -0.4524 -0.2993
vn -0.7611 -0.6158 -0.2038
vn -0.2182 0.9065 -0.3614
vn -0.5328 -0.8017 0.2707
vn -0.4163 0.6429 -0.6429
vn -0.1747 -0.9782 -0.1121
vn -0.2300 0.3770 -0.8972
vn -0.4550 0.0401 -0.8896
vn -0.2868 -0.3598 -0.8879
vn 0.3911 0.6833 -0.6166
vn 0.0111 0.6746 -0.7381
vn -0.1305 0.0844 -0.9879
vn -0.6996 -0.2235 -0.6787
vn -0.3834 -0.3159 -0.8679
vn -0.2717 -0.3270 -0.9051
vn 0.0338 0.8550 -0.5175
vn 0.7035 0.7018 -0.1120
vt 0.750779 0.418791
vt 0.732082 0.498450
vt 0.717584 0.436919
vt 0.744039 0.940426
vt 0.704149 0.830638
vt 0.765423 0.863980
vt 0.736064 0.372694
vt 0.714152 0.317772
vt 0.760750 0.322848
vt 0.723451 0.251072
vt 0.765885 0.274564
vt 0.745681 0.661417
vt 0.713497 0.742034
vt 0.701091 0.685882
vt 0.755512 0.172774
vt 0.690066 0.204471
vt 0.700357 0.128297
vt 0.762383 0.589315
vt 0.710206 0.621615
vt 0.722189 0.951258
vt 0.719536 0.060948
vt 0.759097 0.110831
vt 0.701582 0.984872
vt 0.702944 0.955657
vt 0.707031 0.984375
vt 0.696194 0.495871
vt 0.686313 0.432241
vt 0.655400 0.854301
vt 0.664273 0.785750
vt 0.685723 0.267834
vt 0.659465 0.709783
vt 0.655060 0.627082
vt 0.737643 0.549539
vt 0.691884 0.566255
vt 0.643378 0.222193
vt 0.648984 0.112192
vt 0.676280 0.986240
vt 0.646076 0.948195
vt 0.679449 0.030296
vt 0.668136 0.039058
vt 0.671961 0.015936
vt 0.665627 0.532301
vt 0.650702 0.468372
vt 0.647645 0.414500
vt 0.701333 0.364002
vt 0.670316 0.347038
vt 0.601233 0.937501
vt 0.594355 0.861891
vt 0.633348 0.372106
vt 0.644463 0.303953
vt 0.612237 0.341214
vt 0.608623 0.766803
vt 0.599658 0.292524
vt 0.604639 0.663500
vt 0.655732 0.171158
vt 0.610342 0.139574
vt 0.636854 0.541565
vt 0.655412 0.056381
vt 0.584621 0.050435
vt 0.641074 0.017737
vt 0.559958 0.728082
vt 0.578660 0.226909
vt 0.580690 0.173711
vt 0.592455 0.599884
vt 0.610427 0.575959
vt 0.581822 0.086922
vt 0.603626 0.506960
vt 0.582673 0.445194
vt 0.601350 0.412634
vt 0.626627 0.472717
vt 0.574240 0.510637
vt 0.551145 0.391312
vt 0.571073 0.376513
vt 0.547878 0.826223
vt 0.559382 0.300384
vt 0.555078 0.659650
vt 0.526860 0.137154
vt 0.568124 0.040005
vt 0.578753 0.042505
vt 0.531072 0.294724
vt 0.528813 0.639414
vt 0.558429 0.583773
vt 0.523315 0.557854
vt 0.537501 0.503178
vt 0.530705 0.443007
vt 0.518745 0.936886
vt 0.485050 0.891064
vt 0.497194 0.295727
vt 0.508790 0.786238
vt 0.504911 0.715612
vt 0.453844 0.842247
vt 0.514513 0.240507
vt 0.498714 0.188773
vt 0.515396 0.080201
vt 0.517836 0.026797
vt 0.498015 0.519740
vt 0.505395 0.040920
vt 0.485863 0.452183
vt 0.489874 0.595180
vt 0.482668 0.665383
vt 0.454739 0.645179
vt 0.460470 0.122024
vt 0.463291 0.524400
vt 0.486328 0.007812
vt 0.484805 0.039721
vt 0.484375 0.000000
vt 0.465805 0.389404
vt 0.509082 0.378153
vt 0.454808 0.782228
vt 0.458967 0.722438
vt 0.456033 0.274737
vt 0.479683 0.230257
vt 0.429974 0.452157
vt 0.422290 0.399154
vt 0.463594 0.344418
vt 0.435554 0.307240
vt 0.429105 0.206881
vt 0.365833 0.127758
vt 0.439992 0.571558
vt 0.461433 0.020445
vt 0.443792 0.037529
vt 0.453125 0.000000
vt 0.431330 0.941893
vt 0.356493 0.914449
vt 0.396812 0.789747
vt 0.415341 0.350516
vt 0.407956 0.702670
vt 0.388608 0.387379
vt 0.374034 0.355434
vt 0.370723 0.725924
vt 0.382673 0.258635
vt 0.360434 0.213176
vt 0.376449 0.635743
vt 0.410872 0.610549
vt 0.347323 0.167063
vt 0.414384 0.094984
vt 0.363994 0.065122
vt 0.403864 0.040682
vt 0.422976 0.518256
vt 0.384105 0.553811
vt 0.382820 0.461662
vt 0.383005 0.862901
vt 0.333546 0.800862
vt 0.336887 0.501802
vt 0.360595 0.421566
vt 0.325696 0.451863
vt 0.321717 0.359069
vt 0.326081 0.732143
vt 0.350517 0.315747
vt 0.334635 0.272425
vt 0.339054 0.683910
vt 0.340057 0.606277
vt 0.358692 0.544163
vt 0.300655 0.235581
vt 0.302279 0.612052
vt 0.270725 0.176454
vt 0.298584 0.538909
vt 0.328373 0.016955
vt 0.324984 0.012562
vt 0.328125 0.000000
vt 0.334800 0.058279
vt 0.321889 0.033406
vt 0.339844 0.046875
vt 0.276780 0.069489
vt 0.349553 0.063431
vt 0.315228 0.410856
vt 0.302577 0.821335
vt 0.297136 0.304693
vt 0.283917 0.475391
vt 0.303161 0.941893
vt 0.261240 0.824240
vt 0.278081 0.354105
vt 0.289559 0.706277
vt 0.242644 0.691875
vt 0.253327 0.256035
vt 0.255191 0.608439
vt 0.240534 0.137900
vt 0.259337 0.489409
vt 0.268282 0.945179
vt 0.265555 0.997443
vt 0.259766 0.976563
vt 0.264866 0.038886
vt 0.263672 0.007812
vt 0.265625 0.000000
vt 0.254422 0.367592
vt 0.241041 0.392559
vt 0.214813 0.963326
vt 0.224013 0.071575
vt 0.243487 0.036448
vt 0.240741 0.544508
vt 0.215841 0.485153
vt 0.233125 0.447146
vt 0.184012 0.828244
vt 0.225857 0.331424
vt 0.225955 0.749402
vt 0.213528 0.213393
vt 0.225873 0.611953
vt 0.166540 0.242871
vt 0.177700 0.210864
vt 0.204028 0.587520
vt 0.194666 0.688374
vt 0.178498 0.614645
vt 0.179849 0.165313
vt 0.182040 0.423175
vt 0.203225 0.370542
vt 0.142659 0.805715
vt 0.211809 0.296882
vt 0.165665 0.299634
vt 0.192848 0.507844
vt 0.153322 0.453912
vt 0.169157 0.943353
vt 0.148841 0.757181
vt 0.130868 0.723590
vt 0.124867 0.185969
vt 0.159058 0.658843
vt 0.157006 0.592581
vt 0.162857 0.961558
vt 0.173828 0.992188
vt 0.171875 1.000000
vt 0.177094 0.026721
vt 0.167453 0.017851
vt 0.171875 0.000000
vt 0.124448 0.252101
vt 0.129223 0.688061
vt 0.126301 0.629434
vt 0.129708 0.559008
vt 0.143423 0.041325
vt 0.151086 0.088165
vt 0.098181 0.151299
vt 0.174399 0.543911
vt 0.141542 0.517522
vt 0.137456 0.012677
vt 0.140625 0.000000
vt 0.125987 0.481044
vt 0.115683 0.422146
vt 0.114742 0.885069
vt 0.148539 0.362594
vt 0.101451 0.283995
vt 0.101753 0.351608
vt 0.094816 0.764639
vt 0.066696 0.261811
vt 0.091568 0.222245
vt 0.066258 0.721499
vt 0.155603 0.124150
vt 0.100413 0.588195
vt 0.104975 0.528861
vt 0.061962 0.142909
vt 0.101103 0.061678
vt 0.105007 0.979903
vt 0.103949 0.937189
vt 0.112070 0.983767
vt 0.097995 0.647427
vt 0.068419 0.611583
vt 0.068602 0.533821
vt 0.077816 0.011782
vt 0.060574 0.058905
vt 0.077943 0.983672
vt 0.080078 0.992188
vt 0.078125 1.000000
vt 0.089000 0.483853
vt 0.057770 0.482360
vt 0.079764 0.425794
vt 0.065941 0.943320
vt 0.036243 0.903290
vt 0.061397 0.405090
vt 0.060087 0.304176
vt 0.063779 0.199652
vt 0.055661 0.667179
vt 0.073200 0.833192
vt 0.006799 0.848692
vt 0.039017 0.797308
vt 0.036495 0.257623
vt 0.042631 0.577353
vt 0.022265 0.649493
vt 0.016623 0.574968
vt 0.034955 0.499138
vt 0.037921 0.964186
vt 0.045939 0.985046
vt 0.039062 0.031250
vt 0.035614 0.045045
vt 0.040482 0.416669
vt 0.015018 0.143741
vt 0.007792 0.074800
vt 0.003835 0.516607
vt 0.006723 0.452137
vt 0.009154 0.696280
vt 0.013300 0.764955
vt 0.000000 0.734321
vt 0.002034 0.652343
vt 0.010328 0.214086
vt 0.972508 0.383344
vt 0.955315 0.321082
vt 0.996433 0.318932
vt 0.995176 0.394875
vt 0.989468 0.694929
vt 0.975884 0.744449
vt 0.946748 0.713503
vt 0.996504 0.219714
vt 0.969028 0.272654
vt 0.986261 0.161797
vt 0.999224 0.584470
vt 0.976968 0.638470
vt 0.973358 0.577106
vt 0.942076 0.139097
vt 0.963506 0.059872
vt 0.995248 0.082786
vt 0.991385 0.510713
vt 0.958285 0.506959
vt 0.992036 0.454187
vt 0.956561 0.439633
vt 0.985967 0.878216
vt 0.986193 0.908121
vt 0.908411 0.912149
vt 0.932441 0.568385
vt 0.991690 0.924044
vt 0.886583 0.948692
vt 0.939996 0.380340
vt 0.914546 0.418374
vt 0.926888 0.792135
vt 0.995012 0.784869
vt 0.920410 0.305151
vt 0.946134 0.245937
vt 0.920516 0.195352
vt 0.891287 0.257377
vt 0.890767 0.212107
vt 0.919348 0.684350
vt 0.883540 0.663145
vt 0.930283 0.634688
vt 0.899640 0.584788
vt 0.869048 0.106447
vt 0.855218 0.067625
vt 0.918901 0.499934
vt 0.909918 0.360945
vt 0.977594 0.841740
vt 0.900034 0.848877
vt 0.886859 0.508868
vt 0.868099 0.540131
vt 0.885051 0.433731
vt 0.854720 0.457897
vt 0.807231 0.934926
vt 0.846396 0.767264
vt 0.894279 0.738706
vt 0.885974 0.317806
vt 0.853975 0.288905
vt 0.855221 0.177390
vt 0.852195 0.611586
vt 0.841081 0.238647
vt 0.812697 0.150313
vt 0.839021 0.529543
vt 0.878541 0.388260
vt 0.843359 0.416967
vt 0.855739 0.355974
vt 0.796645 0.812613
vt 0.827887 0.331236
vt 0.809603 0.471865
vt 0.812065 0.435406
vt 0.792696 0.214805
vt 0.837682 0.680076
vt 0.811992 0.626476
vt 0.799698 0.540355
vt 0.811584 0.278073
vt 0.802833 0.717716
vt 0.783203 0.945313
vt 0.771950 0.504915
vt 0.783332 0.438695
vt 0.775441 0.368402
vt 0.788413 0.312157
vt 0.802780 0.359076
vt 0.744297 0.765623
vt 0.772700 0.683317
vt 0.803586 0.061194
vt 0.728516 0.976563
vt 0.734773 0.979220
vt 0.640794 0.955542
vt 0.640679 0.998613
vt 0.631044 0.961674
vt 0.626245 0.718676
vt 0.569374 0.964998
vt 0.574090 0.943096
vt 0.578096 0.976732
vt 0.580414 0.017538
vt 0.574219 0.015625
vt 0.475514 0.964556
vt 0.482563 0.987349
vt 0.396647 0.310935
vt 0.359946 0.979030
vt 0.363689 0.941873
vt 0.368717 0.962634
vt 0.339765 0.936114
vt 0.285156 0.953125
vt 0.299734 0.983244
vt 0.232396 0.008672
vt 0.177734 0.976563
vt 0.137786 0.949915
vt 0.100552 0.964709
vt 0.012133 0.336042
vt 0.006135 0.037959
vt 0.014859 0.015186
vt 0.011955 0.953378
vt 0.009394 0.392981
vt 0.002575 0.285037
vt 0.993715 0.287920
vt 1.000000 0.632810
vt 0.953082 0.990208
vt 0.952448 0.962959
vt 0.958098 0.980108
vt 0.833854 0.027418
vt 0.822555 0.050310
vt 0.824540 0.028010
vt 0.828379 0.009413
vt 0.200718 0.035717
vt 0.829040 0.985718
vt 0.839288 0.955347
vt 0.788219 0.611647
s 1
f 316/1/316 219/2/219 221/3/221
f 319/4/319 222/5/222 16/6/16
f 216/7/216 15/8/15 217/9/217
f 217/9/217 218/10/218 194/11/194
f 217/9/217 15/8/15 218/10/218
f 203/12/203 21/13/21 17/14/17
f 200/15/200 218/10/218 225/16/225
f 200/15/200 225/16/225 23/17/23
f 18/18/18 203/12/203 19/19/19
f 319/4/319 220/20/220 222/5/222
f 205/21/205 204/22/204 23/17/23
f 3/23/3 220/24/220 213/25/213
f 221/3/221 20/26/20 25/27/25
f 219/2/219 20/26/20 221/3/221
f 30/28/30 32/29/32 222/5/222
f 15/8/15 224/30/224 218/10/218
f 21/13/21 1/31/1 17/14/17
f 224/30/224 225/16/225 218/10/218
f 203/12/203 17/14/17 19/19/19
f 19/19/19 17/14/17 230/32/230
f 14/33/14 19/19/19 24/34/24
f 225/16/225 224/30/224 33/35/33
f 23/17/23 225/16/225 34/36/34
f 230/32/230 24/34/24 19/19/19
f 220/24/220 3/37/3 27/38/27
f 205/39/205 227/40/227 206/41/206
f 226/42/226 228/43/228 25/27/25
f 25/27/25 228/43/228 28/44/28
f 223/45/223 25/27/25 22/46/22
f 27/38/27 234/47/234 30/28/30
f 30/28/30 234/47/234 40/48/40
f 22/46/22 28/44/28 26/49/26
f 31/50/31 26/49/26 39/51/39
f 32/29/32 30/28/30 46/52/46
f 33/35/33 31/50/31 47/53/47
f 224/30/224 31/50/31 33/35/33
f 1/31/1 49/54/49 230/32/230
f 37/55/37 229/56/229 34/36/34
f 225/16/225 33/35/33 37/55/37
f 230/32/230 29/57/29 226/42/226
f 227/58/227 235/59/235 206/60/206
f 226/42/226 29/57/29 228/43/228
f 46/52/46 57/61/57 49/54/49
f 33/35/33 48/62/48 231/63/231
f 37/55/37 33/35/33 231/63/231
f 49/54/49 2/64/2 232/65/232
f 34/36/34 229/56/229 43/66/43
f 29/57/29 232/65/232 38/67/38
f 38/67/38 44/68/44 35/69/35
f 28/44/28 233/70/233 35/69/35
f 26/49/26 35/69/35 39/51/39
f 39/51/39 35/69/35 47/53/47
f 38/67/38 45/71/45 44/68/44
f 44/68/44 45/71/45 52/72/52
f 35/69/35 44/68/44 42/73/42
f 44/68/44 52/72/52 42/73/42
f 46/52/46 40/48/40 54/74/54
f 47/53/47 42/73/42 238/75/238
f 46/52/46 54/74/54 57/61/57
f 48/62/48 47/53/47 238/75/238
f 49/54/49 57/61/57 41/76/41
f 231/63/231 50/77/50 229/56/229
f 232/65/232 45/71/45 38/67/38
f 208/78/208 235/79/235 43/66/43
f 48/62/48 56/80/56 231/63/231
f 41/76/41 58/81/58 51/82/51
f 51/82/51 59/83/59 236/84/236
f 45/71/45 55/85/55 52/72/52
f 40/48/40 207/86/207 237/87/237
f 40/48/40 237/87/237 54/74/54
f 238/75/238 52/72/52 56/80/56
f 52/72/52 68/88/68 56/80/56
f 57/61/57 54/74/54 67/89/67
f 41/76/41 69/90/69 58/81/58
f 54/74/54 237/87/237 239/91/239
f 57/61/57 67/89/67 69/90/69
f 231/63/231 53/92/53 63/93/63
f 43/66/43 65/94/65 208/95/208
f 59/83/59 60/96/60 236/84/236
f 62/97/62 208/95/208 65/94/65
f 60/96/60 240/98/240 236/84/236
f 64/99/64 61/100/61 244/101/244
f 63/93/63 73/102/73 50/77/50
f 64/99/64 72/103/72 60/96/60
f 208/104/208 62/105/62 206/106/206
f 240/98/240 242/107/242 66/108/66
f 67/89/67 239/91/239 81/109/81
f 69/90/69 81/109/81 243/110/243
f 68/88/68 71/111/71 241/112/241
f 69/90/69 243/110/243 61/100/61
f 242/107/242 75/113/75 76/114/76
f 242/107/242 76/114/76 70/115/70
f 68/88/68 248/116/248 71/111/71
f 71/111/71 248/116/248 246/117/246
f 243/110/243 244/101/244 61/100/61
f 241/112/241 246/117/246 63/93/63
f 63/93/63 78/118/78 73/102/73
f 64/99/64 244/101/244 79/119/79
f 62/120/62 210/121/210 206/122/206
f 240/98/240 72/103/72 75/113/75
f 245/123/245 253/124/253 237/87/237
f 239/91/239 250/125/250 81/109/81
f 70/115/70 76/114/76 247/126/247
f 243/110/243 83/127/83 244/101/244
f 247/126/247 251/128/251 249/129/249
f 250/125/250 87/130/87 83/127/83
f 257/131/257 88/132/88 246/117/246
f 83/127/83 89/133/89 84/134/84
f 246/117/246 92/135/92 78/118/78
f 80/136/80 263/137/263 210/138/210
f 74/139/74 82/140/82 85/141/85
f 75/113/75 74/139/74 85/141/85
f 247/126/247 76/114/76 251/128/251
f 76/114/76 85/141/85 251/128/251
f 252/142/252 255/143/255 250/125/250
f 85/141/85 96/144/96 254/145/254
f 254/145/254 96/144/96 91/146/91
f 254/145/254 259/147/259 249/129/249
f 255/143/255 258/148/258 87/130/87
f 256/149/256 93/150/93 257/131/257
f 87/130/87 94/151/94 89/133/89
f 89/133/89 95/152/95 86/153/86
f 82/140/82 89/133/89 86/153/86
f 88/132/88 93/150/93 98/154/98
f 92/135/92 88/132/88 98/154/98
f 95/152/95 94/151/94 103/155/103
f 94/151/94 258/148/258 103/155/103
f 92/135/92 100/156/100 78/118/78
f 96/144/96 103/155/103 105/157/105
f 95/152/95 103/155/103 96/144/96
f 210/158/210 209/159/209 206/160/206
f 263/161/263 209/162/209 210/163/210
f 265/164/265 209/162/209 263/165/263
f 91/146/91 260/166/260 254/145/254
f 252/142/252 97/167/97 255/143/255
f 253/124/253 97/167/97 252/142/252
f 259/147/259 101/168/101 256/149/256
f 91/146/91 266/169/266 260/166/260
f 90/170/90 261/171/261 253/124/253
f 260/166/260 102/172/102 259/147/259
f 253/124/253 261/171/261 97/167/97
f 255/143/255 262/173/262 258/148/258
f 93/150/93 101/168/101 98/154/98
f 262/173/262 261/171/261 269/174/269
f 98/154/98 99/175/99 100/156/100
f 103/155/103 269/174/269 104/176/104
f 78/118/78 100/156/100 270/177/270
f 105/157/105 104/176/104 106/178/106
f 264/179/264 3/180/3 114/181/114
f 209/182/209 212/183/212 206/184/206
f 266/169/266 267/185/267 102/172/102
f 106/178/106 109/186/109 266/169/266
f 102/172/102 99/175/99 101/168/101
f 114/187/114 261/171/261 264/179/264
f 271/188/271 209/189/209 265/164/265
f 108/190/108 115/191/115 4/192/4
f 261/171/261 114/187/114 110/193/110
f 109/186/109 268/194/268 267/185/267
f 267/185/267 268/194/268 99/175/99
f 261/171/261 110/193/110 111/195/111
f 100/156/100 99/175/99 107/196/107
f 104/176/104 269/174/269 113/197/113
f 100/156/100 107/196/107 270/177/270
f 108/190/108 113/197/113 115/191/115
f 107/196/107 279/198/279 6/199/6
f 112/200/112 276/201/276 121/202/121
f 270/177/270 107/196/107 277/203/277
f 115/191/115 120/204/120 272/205/272
f 111/195/111 110/193/110 122/206/122
f 268/194/268 279/198/279 273/207/273
f 268/194/268 117/208/117 279/198/279
f 273/207/273 279/198/279 107/196/107
f 274/209/274 281/210/281 120/204/120
f 114/187/114 275/211/275 110/193/110
f 111/195/111 122/206/122 282/212/282
f 276/201/276 282/212/282 123/213/123
f 277/203/277 6/199/6 285/214/285
f 121/202/121 5/215/5 116/216/116
f 211/217/211 114/218/114 3/219/3
f 212/220/212 125/221/125 206/222/206
f 279/198/279 285/214/285 6/199/6
f 136/223/136 285/214/285 279/198/279
f 5/215/5 124/224/124 137/225/137
f 116/216/116 137/225/137 138/226/138
f 125/227/125 118/228/118 133/229/133
f 119/230/119 138/226/138 126/231/126
f 125/227/125 134/232/134 206/233/206
f 288/234/288 135/235/135 281/210/281
f 275/211/275 280/236/280 110/193/110
f 281/210/281 135/235/135 127/237/127
f 127/237/127 283/238/283 117/208/117
f 135/235/135 132/239/132 127/237/127
f 282/212/282 122/206/122 143/240/143
f 136/223/136 283/238/283 140/241/140
f 140/241/140 284/242/284 136/223/136
f 123/213/123 144/243/144 124/224/124
f 136/223/136 284/242/284 285/214/285
f 278/244/278 285/214/285 133/229/133
f 286/245/286 129/246/129 138/226/138
f 133/229/133 142/247/142 134/248/134
f 138/226/138 129/246/129 126/231/126
f 213/249/213 287/250/287 211/251/211
f 7/252/7 294/253/294 286/245/286
f 286/245/286 294/253/294 289/254/289
f 286/245/286 289/254/289 129/246/129
f 206/255/206 134/248/134 8/256/8
f 213/257/213 211/258/211 3/259/3
f 130/260/130 147/261/147 131/262/131
f 135/235/135 130/260/130 131/262/131
f 130/260/130 289/254/289 147/261/147
f 290/263/290 139/264/139 287/250/287
f 132/239/132 131/262/131 148/265/148
f 132/239/132 292/266/292 283/238/283
f 132/239/132 148/265/148 292/266/292
f 283/238/283 292/266/292 140/241/140
f 284/242/284 140/241/140 141/267/141
f 144/243/144 294/253/294 7/252/7
f 144/243/144 293/268/293 294/253/294
f 128/269/128 9/270/9 152/271/152
f 292/266/292 145/272/145 140/241/140
f 146/273/146 153/274/153 295/275/295
f 294/253/294 146/273/146 289/254/289
f 289/254/289 146/273/146 296/276/296
f 214/277/214 290/263/290 213/278/213
f 206/279/206 8/256/8 299/280/299
f 147/261/147 296/276/296 291/281/291
f 131/262/131 147/261/147 148/265/148
f 151/282/151 299/283/299 8/256/8
f 295/275/295 159/284/159 296/276/296
f 146/273/146 295/275/295 296/276/296
f 296/276/296 160/285/160 291/281/291
f 128/269/128 139/264/139 9/270/9
f 158/286/158 298/287/298 154/288/154
f 153/274/153 158/286/158 167/289/167
f 142/247/142 150/290/150 151/282/151
f 157/291/157 166/292/166 297/293/297
f 156/294/156 157/291/157 297/293/297
f 158/295/158 154/296/154 171/297/171
f 150/298/150 300/299/300 151/300/151
f 295/301/295 167/302/167 163/303/163
f 155/304/155 174/305/174 299/306/299
f 295/301/295 163/303/163 159/307/159
f 163/303/163 162/308/162 159/307/159
f 159/307/159 162/308/162 160/309/160
f 162/308/162 164/310/164 160/309/160
f 9/311/9 139/312/139 168/313/168
f 160/309/160 157/291/157 156/294/156
f 163/303/163 161/314/161 162/308/162
f 214/315/214 175/316/175 168/313/168
f 164/310/164 165/317/165 157/291/157
f 164/310/164 302/318/302 165/317/165
f 154/296/154 169/319/169 171/297/171
f 298/320/298 169/319/169 154/296/154
f 300/299/300 166/292/166 173/321/173
f 172/322/172 306/323/306 151/300/151
f 172/322/172 173/321/173 304/324/304
f 306/323/306 172/322/172 11/325/11
f 180/326/180 307/327/307 10/328/10
f 10/328/10 170/329/170 161/314/161
f 155/304/155 191/330/191 174/305/174
f 191/330/191 182/331/182 174/305/174
f 161/314/161 301/332/301 162/308/162
f 301/332/301 302/318/302 164/310/164
f 165/317/165 302/318/302 303/333/303
f 9/334/9 184/335/184 169/319/169
f 166/292/166 303/333/303 173/321/173
f 179/336/179 170/329/170 310/337/310
f 302/318/302 301/332/301 176/338/176
f 176/338/176 179/336/179 311/339/311
f 175/316/175 12/340/12 168/313/168
f 169/319/169 185/341/185 305/342/305
f 304/324/304 178/343/178 183/344/183
f 305/342/305 307/327/307 180/326/180
f 306/323/306 308/345/308 155/304/155
f 11/325/11 308/345/308 306/323/306
f 307/327/307 309/346/309 170/329/170
f 304/324/304 183/344/183 190/347/190
f 308/345/308 187/348/187 191/330/191
f 310/337/310 309/346/309 192/349/192
f 179/336/179 192/349/192 311/339/311
f 177/350/177 176/338/176 188/351/188
f 176/338/176 311/339/311 188/351/188
f 177/350/177 188/351/188 181/352/181
f 168/313/168 201/353/201 184/335/184
f 178/343/178 181/352/181 183/344/183
f 183/344/183 181/352/181 189/354/189
f 188/351/188 199/355/199 186/356/186
f 308/345/308 190/347/190 195/357/195
f 313/358/313 197/359/197 309/346/309
f 309/346/309 197/359/197 192/349/192
f 192/349/192 197/359/197 198/360/198
f 191/330/191 187/348/187 204/22/204
f 190/347/190 196/361/196 195/357/195
f 312/362/312 197/359/197 313/358/313
f 12/340/12 213/363/213 319/4/319
f 199/355/199 193/364/193 315/365/315
f 12/340/12 16/6/16 168/313/168
f 315/365/315 317/366/317 186/356/186
f 199/355/199 315/365/315 186/356/186
f 215/367/215 194/11/194 196/361/196
f 317/366/317 217/9/217 314/368/314
f 312/362/312 13/369/13 318/370/318
f 318/370/318 21/13/21 203/12/203
f 201/353/201 13/369/13 312/362/312
f 194/11/194 218/10/218 195/357/195
f 182/371/182 204/22/204 205/21/205
f 193/364/193 18/18/18 14/33/14
f 193/364/193 219/2/219 316/1/316
f 316/1/316 221/3/221 216/7/216
f 216/7/216 221/3/221 223/45/223
f 216/7/216 223/45/223 15/8/15
f 317/366/317 216/7/216 217/9/217
f 16/6/16 222/5/222 13/369/13
f 204/22/204 200/15/200 23/17/23
f 14/33/14 18/18/18 19/19/19
f 193/364/193 14/33/14 219/2/219
f 220/372/220 319/4/319 213/373/213
f 20/26/20 219/2/219 24/34/24
f 219/2/219 14/33/14 24/34/24
f 20/26/20 24/34/24 226/42/226
f 222/5/222 220/24/220 30/28/30
f 221/3/221 25/27/25 223/45/223
f 21/13/21 13/369/13 32/29/32
f 13/369/13 222/5/222 32/29/32
f 224/30/224 15/8/15 22/46/22
f 224/30/224 22/46/22 31/50/31
f 21/13/21 32/29/32 1/31/1
f 17/14/17 1/31/1 230/32/230
f 225/16/225 37/55/37 34/36/34
f 24/34/24 230/32/230 226/42/226
f 227/40/227 23/17/23 34/36/34
f 205/21/205 23/17/23 227/40/227
f 20/26/20 226/42/226 25/27/25
f 30/28/30 220/24/220 27/38/27
f 22/46/22 25/27/25 28/44/28
f 15/8/15 223/45/223 22/46/22
f 31/50/31 22/46/22 26/49/26
f 27/374/27 3/375/3 234/376/234
f 228/43/228 29/57/29 233/70/233
f 28/44/28 228/43/228 233/70/233
f 32/29/32 46/52/46 36/377/36
f 32/29/32 36/377/36 1/31/1
f 37/55/37 231/63/231 229/56/229
f 230/32/230 232/65/232 29/57/29
f 227/58/227 34/36/34 235/59/235
f 235/59/235 34/36/34 43/66/43
f 29/57/29 38/67/38 233/70/233
f 33/35/33 47/53/47 48/62/48
f 230/32/230 49/54/49 232/65/232
f 1/31/1 36/377/36 49/54/49
f 49/54/49 36/377/36 46/52/46
f 233/70/233 38/67/38 35/69/35
f 40/48/40 234/47/234 207/86/207
f 26/49/26 28/44/28 35/69/35
f 46/52/46 30/28/30 40/48/40
f 47/53/47 31/50/31 39/51/39
f 47/53/47 35/69/35 42/73/42
f 49/54/49 41/76/41 51/82/51
f 2/64/2 49/54/49 51/82/51
f 2/64/2 51/82/51 45/71/45
f 43/66/43 229/56/229 50/77/50
f 232/65/232 2/64/2 45/71/45
f 207/378/207 234/379/234 3/380/3
f 206/381/206 235/79/235 208/382/208
f 48/62/48 238/75/238 56/80/56
f 51/82/51 58/81/58 59/83/59
f 50/77/50 65/94/65 43/66/43
f 45/71/45 51/82/51 236/84/236
f 45/71/45 236/84/236 55/85/55
f 238/75/238 42/73/42 52/72/52
f 41/76/41 57/61/57 69/90/69
f 52/72/52 55/85/55 66/108/66
f 55/85/55 240/98/240 66/108/66
f 67/89/67 54/74/54 239/91/239
f 52/72/52 66/108/66 68/88/68
f 66/108/66 70/115/70 68/88/68
f 56/80/56 68/88/68 53/92/53
f 231/63/231 56/80/56 53/92/53
f 64/99/64 58/81/58 61/100/61
f 61/100/61 58/81/58 69/90/69
f 231/63/231 63/93/63 50/77/50
f 58/81/58 64/99/64 59/83/59
f 59/83/59 64/99/64 60/96/60
f 236/84/236 240/98/240 55/85/55
f 65/94/65 50/77/50 73/102/73
f 65/94/65 73/102/73 62/120/62
f 245/383/245 207/86/207 3/384/3
f 60/96/60 72/103/72 240/98/240
f 66/108/66 242/107/242 70/115/70
f 69/90/69 67/89/67 81/109/81
f 53/92/53 68/88/68 241/112/241
f 53/92/53 241/112/241 63/93/63
f 241/112/241 71/111/71 246/117/246
f 242/107/242 240/98/240 75/113/75
f 68/88/68 70/115/70 248/116/248
f 63/93/63 246/117/246 78/118/78
f 72/103/72 64/99/64 79/119/79
f 244/101/244 84/134/84 79/119/79
f 74/139/74 72/103/72 79/119/79
f 210/121/210 62/120/62 73/102/73
f 75/113/75 72/103/72 74/139/74
f 237/87/237 207/86/207 245/123/245
f 73/102/73 78/118/78 80/136/80
f 73/102/73 80/136/80 210/138/210
f 74/139/74 79/119/79 84/134/84
f 237/87/237 252/142/252 239/91/239
f 237/87/237 253/124/253 252/142/252
f 248/116/248 70/115/70 247/126/247
f 81/109/81 250/125/250 83/127/83
f 247/126/247 77/385/77 248/116/248
f 248/116/248 77/385/77 257/131/257
f 248/116/248 257/131/257 246/117/246
f 243/110/243 81/109/81 83/127/83
f 244/101/244 83/127/83 84/134/84
f 77/385/77 247/126/247 249/129/249
f 83/127/83 87/130/87 89/133/89
f 246/117/246 88/132/88 92/135/92
f 84/134/84 89/133/89 82/140/82
f 74/139/74 84/134/84 82/140/82
f 76/114/76 75/113/75 85/141/85
f 251/128/251 85/141/85 254/145/254
f 239/91/239 252/142/252 250/125/250
f 80/136/80 78/118/78 263/165/263
f 85/141/85 82/140/82 86/153/86
f 3/386/3 253/387/253 245/388/245
f 90/389/90 253/124/253 3/386/3
f 85/141/85 86/153/86 96/144/96
f 249/129/249 251/128/251 254/145/254
f 77/385/77 249/129/249 256/149/256
f 249/129/249 259/147/259 256/149/256
f 250/125/250 255/143/255 87/130/87
f 77/385/77 256/149/256 257/131/257
f 87/130/87 258/148/258 94/151/94
f 88/132/88 257/131/257 93/150/93
f 89/133/89 94/151/94 95/152/95
f 93/150/93 256/149/256 101/168/101
f 86/153/86 95/152/95 96/144/96
f 91/146/91 96/144/96 105/157/105
f 254/145/254 260/166/260 259/147/259
f 264/390/264 90/170/90 3/391/3
f 91/146/91 105/157/105 266/169/266
f 90/170/90 264/179/264 261/171/261
f 260/166/260 266/169/266 102/172/102
f 259/147/259 102/172/102 101/168/101
f 255/143/255 97/167/97 262/173/262
f 103/155/103 258/148/258 262/173/262
f 92/135/92 98/154/98 100/156/100
f 263/165/263 78/118/78 270/177/270
f 98/154/98 101/168/101 99/175/99
f 103/155/103 262/173/262 269/174/269
f 105/157/105 103/155/103 104/176/104
f 263/165/263 270/177/270 265/164/265
f 270/177/270 271/188/271 265/164/265
f 266/169/266 105/157/105 106/178/106
f 104/176/104 108/190/108 106/178/106
f 266/169/266 109/186/109 267/185/267
f 102/172/102 267/185/267 99/175/99
f 97/167/97 261/171/261 262/173/262
f 271/188/271 212/392/212 209/189/209
f 106/178/106 4/192/4 109/186/109
f 106/178/106 108/190/108 4/192/4
f 109/186/109 4/192/4 272/205/272
f 109/186/109 272/205/272 268/194/268
f 269/174/269 261/171/261 111/195/111
f 99/175/99 268/194/268 107/196/107
f 113/197/113 269/174/269 276/201/276
f 108/190/108 104/176/104 113/197/113
f 115/191/115 113/197/113 112/200/112
f 269/174/269 111/195/111 276/201/276
f 277/203/277 107/196/107 6/199/6
f 113/197/113 276/201/276 112/200/112
f 270/177/270 277/203/277 278/244/278
f 119/230/119 112/200/112 121/202/121
f 270/177/270 278/244/278 271/188/271
f 115/191/115 112/200/112 274/209/274
f 274/209/274 112/200/112 119/230/119
f 115/191/115 274/209/274 120/204/120
f 4/192/4 115/191/115 272/205/272
f 268/194/268 272/205/272 117/208/117
f 268/194/268 273/207/273 107/196/107
f 119/230/119 126/231/126 281/210/281
f 120/204/120 281/210/281 127/237/127
f 110/193/110 280/236/280 122/206/122
f 272/205/272 127/237/127 117/208/117
f 272/205/272 120/204/120 127/237/127
f 276/201/276 111/195/111 282/212/282
f 117/208/117 136/223/136 279/198/279
f 5/215/5 276/201/276 123/213/123
f 121/202/121 276/201/276 5/215/5
f 119/230/119 121/202/121 116/216/116
f 141/267/141 133/229/133 285/214/285 284/242/284
f 271/188/271 278/244/278 118/228/118
f 274/209/274 119/230/119 281/210/281
f 211/217/211 275/211/275 114/393/114
f 278/244/278 277/203/277 285/214/285
f 116/216/116 5/215/5 137/225/137
f 125/227/125 133/229/133 134/248/134
f 119/230/119 116/216/116 138/226/138
f 281/210/281 126/231/126 288/234/288
f 275/211/275 211/394/211 280/236/280
f 127/237/127 132/239/132 283/238/283
f 117/208/117 283/238/283 136/223/136
f 5/215/5 123/213/123 124/224/124
f 132/239/132 135/235/135 131/262/131
f 122/206/122 280/236/280 128/269/128
f 143/240/143 122/206/122 128/269/128
f 282/212/282 143/240/143 123/213/123
f 123/213/123 143/240/143 144/243/144
f 137/225/137 124/224/124 7/252/7
f 124/224/124 144/243/144 7/252/7
f 137/225/137 7/252/7 286/245/286
f 138/226/138 137/225/137 286/245/286
f 118/228/118 278/244/278 133/229/133
f 126/231/126 129/246/129 288/234/288
f 287/250/287 213/249/213 290/395/290
f 135/235/135 288/234/288 130/260/130
f 288/234/288 129/246/129 130/260/130
f 211/394/211 287/250/287 280/236/280
f 142/247/142 133/229/133 141/267/141
f 8/256/8 134/248/134 142/247/142
f 130/260/130 129/246/129 289/254/289
f 287/250/287 139/264/139 280/236/280
f 128/269/128 280/236/280 139/264/139
f 143/240/143 128/269/128 152/271/152
f 144/243/144 143/240/143 152/271/152
f 292/266/292 148/265/148 291/281/291
f 291/281/291 297/396/297 292/266/292
f 144/243/144 152/271/152 298/287/298
f 158/286/158 144/243/144 298/287/298
f 153/274/153 144/243/144 158/286/158
f 141/267/141 140/241/140 145/272/145
f 293/268/293 144/243/144 153/274/153
f 146/273/146 293/268/293 153/274/153
f 294/253/294 293/268/293 146/273/146
f 142/247/142 141/267/141 150/290/150
f 8/256/8 142/247/142 151/282/151
f 147/261/147 289/254/289 296/276/296
f 148/265/148 147/261/147 291/281/291
f 174/397/174 206/398/206 299/283/299
f 296/276/296 159/284/159 160/285/160
f 139/264/139 290/263/290 214/399/214
f 291/281/291 160/285/160 156/400/156
f 291/281/291 156/400/156 297/396/297
f 298/287/298 152/271/152 9/270/9
f 292/266/292 297/396/297 149/401/149
f 292/266/292 149/401/149 145/272/145
f 150/290/150 145/272/145 149/401/149
f 141/267/141 145/272/145 150/290/150
f 150/298/150 149/402/149 300/299/300
f 297/293/297 166/292/166 149/402/149
f 300/299/300 149/402/149 166/292/166
f 151/300/151 300/299/300 172/322/172
f 167/302/167 158/295/158 171/297/171
f 295/301/295 153/403/153 167/302/167
f 151/300/151 155/304/155 299/306/299
f 160/309/160 164/310/164 157/291/157
f 213/404/213 175/405/175 214/406/214
f 162/308/162 301/332/301 164/310/164
f 139/312/139 214/315/214 168/313/168
f 157/291/157 165/317/165 166/292/166
f 298/320/298 9/334/9 169/319/169
f 172/322/172 300/299/300 173/321/173
f 167/302/167 171/297/171 10/328/10
f 10/328/10 171/297/171 180/326/180
f 151/300/151 306/323/306 155/304/155
f 163/303/163 167/302/167 10/328/10
f 161/314/161 163/303/163 10/328/10
f 171/297/171 169/319/169 305/342/305
f 180/326/180 171/297/171 305/342/305
f 11/325/11 172/322/172 304/324/304
f 301/332/301 161/314/161 170/329/170
f 9/334/9 168/313/168 184/335/184
f 165/317/165 303/333/303 166/292/166
f 301/332/301 170/329/170 179/336/179
f 176/338/176 301/332/301 179/336/179
f 177/350/177 302/318/302 176/338/176
f 303/333/303 302/318/302 177/350/177
f 178/343/178 303/333/303 177/350/177
f 173/321/173 303/333/303 178/343/178
f 184/335/184 185/341/185 169/319/169
f 304/324/304 173/321/173 178/343/178
f 155/304/155 308/345/308 191/330/191
f 10/328/10 307/327/307 170/329/170
f 170/329/170 309/346/309 310/337/310
f 305/342/305 313/358/313 307/327/307
f 305/342/305 185/341/185 313/358/313
f 11/325/11 190/347/190 308/345/308
f 304/324/304 190/347/190 11/325/11
f 307/327/307 313/358/313 309/346/309
f 179/336/179 310/337/310 192/349/192
f 178/343/178 177/350/177 181/352/181
f 174/407/174 182/408/182 205/409/205
f 206/410/206 174/407/174 205/409/205
f 188/351/188 311/339/311 199/355/199
f 311/339/311 192/349/192 199/355/199
f 168/313/168 16/6/16 201/353/201
f 188/351/188 186/356/186 314/368/314
f 184/335/184 201/353/201 185/341/185
f 181/352/181 188/351/188 189/354/189
f 188/351/188 314/368/314 189/354/189
f 183/344/183 189/354/189 196/361/196
f 183/344/183 196/361/196 190/347/190
f 185/341/185 312/362/312 313/358/313
f 118/228/118 125/221/125 212/411/212 271/188/271
f 187/348/187 308/345/308 195/357/195
f 199/355/199 192/349/192 198/360/198
f 213/412/213 12/340/12 175/413/175
f 197/359/197 318/370/318 202/414/202
f 197/359/197 312/362/312 318/370/318
f 204/22/204 187/348/187 200/15/200
f 198/360/198 197/359/197 202/414/202
f 182/371/182 191/330/191 204/22/204
f 193/364/193 198/360/198 202/414/202
f 193/364/193 202/414/202 18/18/18
f 199/355/199 198/360/198 193/364/193
f 12/340/12 319/4/319 16/6/16
f 186/356/186 317/366/317 314/368/314
f 189/354/189 314/368/314 215/367/215
f 185/341/185 201/353/201 312/362/312
f 189/354/189 215/367/215 196/361/196
f 196/361/196 194/11/194 195/357/195
f 315/365/315 316/1/316 317/366/317
f 314/368/314 217/9/217 215/367/215
f 317/366/317 316/1/316 216/7/216
f 215/367/215 217/9/217 194/11/194
f 201/353/201 16/6/16 13/369/13
f 318/370/318 13/369/13 21/13/21
f 200/15/200 195/357/195 218/10/218
f 202/414/202 318/370/318 203/12/203
f 18/18/18 202/414/202 203/12/203
f 187/348/187 195/357/195 200/15/200
f 315/365/315 193/364/193 316/1/316
