<?xml version="1.0" encoding="utf-8"?>
<!-- Generator: Adobe Illustrator 24.0.2, SVG Export Plug-In . SVG Version: 6.00 Build 0)  -->
<svg version="1.1" id="Capa_2" xmlns="http://www.w3.org/2000/svg" xmlns:xlink="http://www.w3.org/1999/xlink" x="0px" y="0px"
	 viewBox="0 0 1000 962" style="enable-background:new 0 0 1000 962;" xml:space="preserve">
<style type="text/css">
	.st0{fill:#B74F59;}
	.st1{fill:#FECB72;}
</style>
<path class="st0" d="M490.78,0.04c111.59-2.91,164.5,161.82,221.57,251.12C815.08,274.66,968,283.47,997.04,384.1
	c27.75,96.15-97.36,177.93-162.49,252.46c8.73,71.84,76.77,240.25-2.69,302.15c-89.76,69.92-224.93-35.59-331.69-80.57
	c-98.7,42.3-223.49,141.44-310.2,79.23c-81.34-58.36-31.56-195.39-22.83-299.46C102.02,559.34-23.13,474.59,7.35,377.39
	c30.7-97.93,117.5-90.64,282-123.54C343.74,161.85,382.81,2.85,490.78,0.04z"/>
<path class="st1" d="M489.44,195.45c70.09-1.83,92.77,105.14,139.16,157.71c59.6,27.83,160.55,20.3,178.8,83.49
	c17.43,60.39-68.03,105.7-102.05,158.56c-0.56,63.25,48.22,150.89-1.69,189.76c-56.37,43.91-138.88-33.74-208.32-50.6
	c-64.94,16.59-140.36,88.83-194.82,49.76c-51.09-36.65-9.56-125.38-14.34-188.07c-33.45-54.54-119.5-102.57-100.36-163.62
	c19.28-61.5,118.07-51.73,177.11-77.59C405.1,301.72,421.63,197.22,489.44,195.45z"/>
</svg>
