<?xml version="1.0" encoding="utf-8"?>
<!-- Generator: Adobe Illustrator 24.0.2, SVG Export Plug-In . SVG Version: 6.00 Build 0)  -->
<svg version="1.1" id="Capa_2" xmlns="http://www.w3.org/2000/svg" xmlns:xlink="http://www.w3.org/1999/xlink" x="0px" y="0px"
	 viewBox="0 0 42 40" style="enable-background:new 0 0 42 40;" xml:space="preserve">
<style type="text/css">
	.st0{fill:#B74F59;}
	.st1{fill:#FECB72;}
</style>
<path class="st0" d="M20.48,1c4.45-0.12,6.56,6.46,8.84,10.02c4.1,0.94,10.2,1.29,11.36,5.3c1.11,3.84-3.88,7.1-6.48,10.07
	c0.35,2.87,3.06,9.59-0.11,12.06c-3.58,2.79-8.97-1.42-13.23-3.21c-3.94,1.69-8.92,5.64-12.38,3.16c-3.25-2.33-1.26-7.8-0.91-11.95
	c-2.6-3.13-7.59-6.52-6.38-10.39c1.23-3.91,4.69-3.62,11.25-4.93C14.61,7.46,16.17,1.11,20.48,1z"/>
<path class="st1" d="M20.42,8.8c2.8-0.07,3.7,4.2,5.55,6.29c2.38,1.11,6.41,0.81,7.13,3.33c0.7,2.41-2.71,4.22-4.07,6.33
	c-0.02,2.52,1.92,6.02-0.07,7.57c-2.25,1.75-5.54-1.35-8.31-2.02c-2.59,0.66-5.6,3.54-7.77,1.99c-2.04-1.46-0.38-5-0.57-7.5
	c-1.33-2.18-4.77-4.09-4-6.53c0.77-2.45,4.71-2.06,7.07-3.1C17.06,13.04,17.72,8.87,20.42,8.8z"/>
</svg>
